<svg xmlns="http://www.w3.org/2000/svg" viewBox="0 0 32 32">
  <rect width="32" height="32" rx="6" fill="#060e22"/>
  <g transform="translate(5.5,6) scale(0.00089)">
    <g transform="matrix(1,0,0,1,0,827.251)">
      <g transform="matrix(1.09,0,0,1.11,1342.5,495)">
        <g transform="matrix(0.716,0,0,1.46,3920.6,-3742.5)"><path d="M5115.6,7302L5115.6,11706.8L3601,12324.8L3601,8026.5L5115.6,7302Z" fill="rgb(31,37,48)" fill-opacity="0.5"/></g>
        <g transform="matrix(0.292,0,0,1.265,4681,-1985.8)"><rect x="2737" y="7870" width="3521" height="4958" fill="rgb(123,130,145)" fill-opacity="0.87"/></g>
        <g transform="matrix(1,0,0,1,2173.6,1693)"><path d="M5407.4,5222L4337.3,6279.4L3307.8,6279.4L5407.4,5222Z" fill="rgb(194,200,212)" fill-opacity="0.9"/></g>
      </g>
      <g transform="matrix(1.09,0,0,1.51,8043.9,-5215.2)">
        <g transform="matrix(0.716,0,0,1.46,3920.6,-3742.5)"><path d="M5115.6,7499.9L5115.6,11870.3L3601,12324.8L3601,8013L5115.6,7499.9Z" fill="rgb(31,37,48)" fill-opacity="0.5"/></g>
        <g transform="matrix(0.292,0,0,1.265,4681,-1985.8)"><rect x="2737" y="7870" width="3521" height="4958" fill="rgb(130,138,153)"/></g>
        <g transform="matrix(1,0,0,1,2173.6,1693)"><path d="M5407.4,5510.9L4337.3,6279.4L3307.8,6279.4L5407.4,5510.9Z" fill="rgb(194,200,212)" fill-opacity="0.9"/></g>
      </g>
      <g transform="matrix(1.09,0,0,1,-1069.6,2012.2)">
        <g transform="matrix(0.716,0,0,1.028,8324.9,-2637.6)"><path d="M6350.3,7422.6L6350.3,11281.4L4835.7,12255.4L4835.7,8564.4L6350.3,7422.6Z" fill="rgb(31,37,48)" fill-opacity="0.47"/></g>
        <g transform="matrix(0.292,0,0,0.945,9968.8,-1280.8)"><path d="M6258,7872.5C6258,7872.5 6255.1,11665.8 6254.9,11878.9C6254.9,11884.8 6247,11890.4 6233.3,11894L2737,12828L2737,7870L6258,7872.5Z" fill="rgb(123,130,145)" fill-opacity="0.92"/></g>
        <g transform="matrix(1,0,0,1,7461.4,-160.5)"><path d="M5407.4,5153.8L4337.3,6319.1L3307.8,6319.1L5407.4,5153.8Z" fill="rgb(194,200,212)" fill-opacity="0.9"/></g>
      </g>
    </g>
  </g>
</svg>